<svg width="18" height="18" viewBox="0 0 18 18" xmlns="http://www.w3.org/2000/svg"><path d="M0 0h18v18H0V0z" fill="#2A2E39" shape-rendering="crispEdges"/><path d="M17.82 11H.18c.83 4.1 4.47 7 8.82 7 4.35 0 7.99-2.9 8.82-7z" fill="#F8F9FD" shape-rendering="crispEdges"/><path d="M12.91 7H5.1l1.6-.77-.86-1.55 1.74.34.22-1.76L9 4.56l1.2-1.3.23 1.76 1.74-.34-.86 1.55 1.6.77z" fill="#FDD835"/><path fill="#1976D2" d="M0 7h18v4H0z" shape-rendering="crispEdges"/><path d="M0 18h9L0 0v18zM9 18h9V0L9 18z" fill="#EF5350" shape-rendering="crispEdges"/></svg>