<svg width="18" height="18" viewBox="0 0 18 18" fill="none" xmlns="http://www.w3.org/2000/svg"><path d="M0 0h18v18H0V0z" fill="#0D47A1"/><path d="M15.73 11.32c.17-.3.27-.63.27-1.02V5.4c-.36.24-.8.38-1.29.38-.7 0-1.32-.3-1.71-.78-.4.48-1.01.78-1.71.78-.49 0-.93-.14-1.29-.39v4.91c0 .39.1.72.27 1.02h5.46z" fill="#F8F9FD"/><path d="M10.25 11.3C11.1 12.64 13 13 13 13s1.92-.36 2.75-1.7h-5.5z" fill="#2196F3"/><circle cx="12.99" cy="8.82" r=".99" stroke="#FB8C00"/><path d="M9 4V0H0v9h4V6l3 3h2V7L6 4h3z" fill="#F8F9FD"/><path d="M3 1V0H1v1H0v2h1v6h2V3h6V1H3z" fill="#EF5350"/><path d="M9 8L5 4H4l5 5V8z" fill="#EF5350"/></svg>