<svg width="18" height="18" viewBox="0 0 18 18" xmlns="http://www.w3.org/2000/svg"><path d="M0 0h18v18H0V0z" fill="#0D47A1" shape-rendering="crispEdges"/><path d="M16.22 18L.87 9.03 15.92 0H18v18h-1.78z" fill="#F8F9FD" shape-rendering="crispEdges"/><path d="M17 0h-2L0 9l15 9h2L2 9l15-9z" fill="#EF5350" shape-rendering="crispEdges"/><path d="M15.65 8.66h-1.07a.85.85 0 0 0-.05-1.14.85.85 0 0 0 0-1.2l-.02.01c.33-.33.35-.89.02-1.22L9.7 9.93c.33.33.86.33 1.2 0l.09-.1 2-.2v1h1V9.55l1.26-.11.4-.79z" fill="#B71C1C"/><path d="M9.78 11L9 10.57l.78-.57H15v1H9.78z" fill="#FDD835"/></svg>