<svg width="18" height="18" viewBox="0 0 18 18" xmlns="http://www.w3.org/2000/svg"><path d="M0 0h18v18H0V0z" fill="#F0F3FA"/><path d="M0 3.71V6.7L18 18v-2.79L0 3.71z" fill="#2A2E39"/><path d="M18 0H0l18 11.4V0zM0 18h18L0 6.69V18z" fill="#FDD835"/><path d="M11.89 7.41a2.9 2.9 0 1 1-5.43-1.38A3.57 3.57 0 0 0 9 12.1a3.56 3.56 0 0 0 2.54-6.07c.22.41.35.88.35 1.38z" fill="#C62828"/><path d="M10 5H8v8h2V5z" fill="#C62828"/><path d="M11.22 6H6.78c0 .3.27.56.57.56h-.02c0 .3.25.56.56.56 0 .3.25.55.55.55h1.12c.3 0 .55-.25.55-.55.3 0 .56-.25.56-.56h-.02c.3 0 .57-.25.57-.56zM11.99 11H6v2H12v-2z" fill="#C62828"/><path d="M13 12h-2.67v1H13v-1zM7.67 12H5v1h2.67v-1z" fill="#C62828"/></svg>