<svg width="18" height="18" viewBox="0 0 18 18" xmlns="http://www.w3.org/2000/svg"><path d="M0 0h18v18H0V0z" fill="#F0F3FA" shape-rendering="crispEdges"/><path d="M0 0v8.5L13 0H0z" fill="#FDD835" shape-rendering="crispEdges"/><path d="M0 18h18V6L0 18z" fill="#0D47A1" shape-rendering="crispEdges"/><path d="M9.84 9l-.73.4a2.61 2.61 0 0 1-2.18 2.18l-.4.74-.4-.74A2.6 2.6 0 0 1 3.95 9.4L3.21 9l.74-.4c.17-1.12 1.06-2 2.18-2.18l.4-.74.4.74c1.12.18 2 1.06 2.18 2.18l.73.4zm-3.29 2.16a2.19 2.19 0 1 0 0-4.38 2.19 2.19 0 0 0 0 4.38z" fill="#2A2E39"/><path d="M6.53 7.33l.47.82h.94l-.47.8.47.82H7l-.47.82-.47-.82h-.94l.47-.81-.47-.81h.94l.47-.82z" fill="#EF5350"/></svg>