<svg width="18" height="18" viewBox="0 0 18 18" xmlns="http://www.w3.org/2000/svg"><path d="M0 0h18v18H0V0z" fill="#FDD835" shape-rendering="crispEdges"/><path d="M0 18h18V0L0 18z" fill="#E65100" shape-rendering="crispEdges"/><path d="M14 5V3h-2.9c-.8.78-.97 1.6-.82 2.69.16 1.06-.2 1.42-1.26 1.27-.7-.1-1.65-.24-2.46.57-.82.82-.68 1.77-.58 2.46.1.65.1.9-.14 1.13-.44.45-1.28 1.32-1.84 1.31V14c.78 0 1.24-.97 2-1.3V14h2v-1H7v-1h2v-1H7.6c.03-.38-.03-.92-.07-1.23-.1-.64-.1-.89.13-1.13.63-.63 1.82.55 3.34-.34V11h2v-1h-1V7h2V6h-2.1c0-.17-.3-.42-.08-1H14z" fill="#F8F9FD"/></svg>