<svg width="18" height="18" xmlns="http://www.w3.org/2000/svg"><path d="M0 0h18v18H0V0z" fill="#0D47A1" shape-rendering="crispEdges"/><path d="M9 14A5 5 0 109 4a5 5 0 000 10z" fill="#F8F9FD"/><path d="M9 13a4 4 0 100-8 4 4 0 000 8z" fill="#4CAF50"/><path d="M9.004 12.005a3 3 0 100-6 3 3 0 000 6z" fill="#F8F9FD"/><path d="M7 9v1.444L9 12l2-1.556V9H7z" fill="#0D47A1"/><path d="M11.003 7h-4v1.997h4V7z" fill="#FDD835"/><path fill="#EF5350" d="M0 0h18v2.001H0zM0 16h18v12H0z" shape-rendering="crispEdges"/></svg>