<svg width="18" height="18" viewBox="0 0 18 18" xmlns="http://www.w3.org/2000/svg"><path d="M0 0h18v18H0V0z" fill="#4CAF50"/><path d="M13.82 12.91l.24.52.56-.13-.25.52.45.35-.56.13v.57l-.44-.36-.45.36v-.57l-.56-.13.45-.35-.25-.52.56.13.25-.52zM11.52 7.43l.25.52.55-.13-.25.52.45.35-.56.13v.57l-.44-.36-.45.36v-.57l-.56-.13.45-.35-.25-.52.56.13.25-.52zM13.82 4.3l.24.52.56-.13-.25.52.45.35-.56.13v.57l-.44-.36-.45.36V5.7l-.56-.13.45-.35-.25-.52.56.13.25-.52zM15.82 6.65l.25.52.56-.13-.25.51.45.36-.56.13v.57l-.45-.36-.44.36v-.57l-.56-.13.45-.36-.25-.51.56.13.24-.52zM14.39 9.4l.2.59h.62l-.5.37.19.6-.51-.37-.51.37.2-.6-.52-.37h.63l.2-.6z" fill="#FDD835"/><path d="M9.98 11.54a2.54 2.54 0 1 1 1.2-4.78A3.12 3.12 0 0 0 5.88 9a3.13 3.13 0 0 0 5.32 2.24c-.36.2-.77.3-1.21.3zM5.66 3.52a1.56 1.56 0 0 0-2.71 0h2.71zM5.66 3.53L4.3 4.9 2.94 3.53a1.57 1.57 0 1 0 2.72 0z" fill="#FDD835"/><path d="M3.91 4.5v1.32a1.57 1.57 0 0 0 .79 0V4.5H3.9z" fill="#D32F2F"/></svg>