<svg width="18" height="18" viewBox="0 0 18 18" xmlns="http://www.w3.org/2000/svg"><path d="M0 18h18v-4H0v4zM18 0H0v8h18V0z" fill="#0D47A1" shape-rendering="crispEdges"/><path d="M0 8v6h18V8H0z" fill="#fff" shape-rendering="crispEdges"/><path d="M0 10v2h18v-2H0z" fill="#EF5350" shape-rendering="crispEdges"/><path d="M7.5 6l.2.64h.63l-.51.39.2.64-.52-.4-.51.4.2-.64-.52-.4h.64L7.5 6zM7.5 14.33l.2.64h.63l-.51.4.2.63-.52-.4L7 16l.2-.64-.52-.39h.64l.2-.64zM3.83 11.52l.2.63h.63l-.51.4.2.63-.52-.4-.51.4.2-.63-.52-.4h.63l.2-.63zM5.23 6.83l.2.64h.63l-.51.4.2.63-.52-.4-.51.4.2-.64-.52-.39h.64l.2-.64zM3 9.46h.63l.2-.64.2.64h.63l-.51.39.2.64-.52-.4-.51.4.2-.64-.52-.4zM4.72 15.04l.2-.63-.52-.4h.64l.2-.63.19.63h.63l-.51.4.2.63-.52-.39-.51.4zM11.17 11.52l-.2.63h-.63l.51.4-.2.63.52-.4.51.4-.2-.63.52-.4h-.63l-.2-.63zM9.77 6.83l-.2.64h-.63l.51.4-.2.63.52-.4.51.4-.2-.64.52-.39h-.64l-.2-.64zM12 9.46h-.63l-.2-.64-.2.64h-.63l.51.39-.2.64.52-.4.51.4-.2-.64.52-.4zM10.28 15.04l-.2-.63.52-.4h-.64l-.2-.63-.19.63h-.63l.51.4-.2.63.52-.39.51.4z" fill="#FDD835"/></svg>