<svg width="18" height="18" viewBox="0 0 18 18" xmlns="http://www.w3.org/2000/svg"><path d="M0 0h18v18H0V0z" fill="#4CAF50"/><path d="M18 18H0V0l18 18z" fill="#0D47A1"/><path d="M9 11.35a2.35 2.35 0 1 0 0-4.7 2.35 2.35 0 0 0 0 4.7z" fill="#FDD835"/><path d="M3.35 12.91l.25.52.56-.13-.25.52.44.35-.55.13v.57l-.45-.36-.45.36v-.57l-.55-.13.45-.35-.25-.52.55.13.25-.52zM1.74 8.6l.24.53.56-.13-.25.51.45.36-.56.12v.58l-.44-.36-.45.36v-.58l-.56-.12.45-.36L.93 9l.56.13.25-.52zM3.35 5.09l.25.51.56-.13L3.9 6l.44.36-.55.12v.57l-.45-.35-.45.35v-.57l-.55-.12.45-.36-.25-.52.55.13.25-.51zM5.36 7.83l.24.51.56-.13-.25.52.45.35-.56.13v.57l-.44-.36-.45.36v-.57l-.56-.13.45-.35-.25-.52.56.13.25-.51zM3.92 10.17l.2.6h.63l-.51.37.2.6-.52-.37-.5.37.19-.6-.51-.37h.63l.2-.6z" fill="#F8F9FD"/><path d="M9 10.57h.78s.34-.6 0-1.18l.79-.78-.4-.78h-.39s-.2.58-.98.58-.97-.58-.97-.58h-.4l.4.78-.4.78.4.4S8.22 9 9 9.38c0 0 .33.5 0 1.18z" fill="#4CAF50"/><path d="M14.84 4.93l.03-.3c0-.7-.45-1.28-1.08-1.49a2.92 2.92 0 0 1 .26 1.76 1.6 1.6 0 0 0-2.25-.5 3 3 0 0 1 1.23.6c.3.22.53.54.7.84l-2.38.75c2.35.4 4.3-1.17 4.3-1.17-.21-.44-.55-.51-.8-.49z" fill="#FDD835"/></svg>