<svg width="18" height="18" viewBox="0 0 18 18" xmlns="http://www.w3.org/2000/svg"><path d="M0 0h18v18H0V0z" fill="#4CAF50"/><path fill="#FDD835" d="M6 0h2v18H6z"/><path fill="#2A2E39" d="M8 0h2v18H8z"/><path fill="#F8F9FD" d="M10 0h2v18h-2z"/><path fill="#FDD835" d="M0 8V6h18v2z"/><path fill="#2A2E39" d="M0 10V8h18v2z"/><path fill="#F8F9FD" d="M0 12v-2h18v2z"/><path d="M9 14A5 5 0 1 0 9 4a5 5 0 0 0 0 10z" fill="#EF5350"/><path d="M9 6c-.13 0-.26 0-.4.03a.5.5 0 1 1-.12-1 4.03 4.03 0 0 1 1.04 0 .5.5 0 0 1-.13 1A3.03 3.03 0 0 0 9 6zm1.73-.08a.5.5 0 0 1 .7-.1c.28.22.53.47.74.74a.5.5 0 0 1-.79.61c-.16-.2-.35-.4-.55-.55a.5.5 0 0 1-.1-.7zm-3.46 0a.5.5 0 0 1-.1.7c-.2.16-.4.35-.55.55a.5.5 0 1 1-.8-.6c.22-.28.47-.53.74-.74a.5.5 0 0 1 .7.09zM5.59 8.05a.5.5 0 0 1 .44.56 3.03 3.03 0 0 0 0 .78.5.5 0 1 1-1 .13 4.03 4.03 0 0 1 0-1.04.5.5 0 0 1 .56-.43zm6.82 0a.5.5 0 0 1 .56.43 4.03 4.03 0 0 1 0 1.04.5.5 0 1 1-1-.13 3.04 3.04 0 0 0 0-.78.5.5 0 0 1 .44-.56zm-6.5 2.68a.5.5 0 0 1 .71.1c.16.2.35.4.55.55a.5.5 0 0 1-.6.8 4.02 4.02 0 0 1-.74-.74.5.5 0 0 1 .09-.7zm6.17 0a.5.5 0 0 1 .1.7c-.22.28-.47.53-.74.74a.5.5 0 0 1-.61-.79c.2-.16.4-.35.55-.55a.5.5 0 0 1 .7-.1zm-4.03 1.68a.5.5 0 0 1 .56-.44 3.04 3.04 0 0 0 .78 0 .5.5 0 0 1 .13 1 4.03 4.03 0 0 1-1.04 0 .5.5 0 0 1-.43-.56z" fill="#4CAF50"/><rect x="8" y="7" width="2" height="4" rx="1" fill="#4CAF50"/></svg>