<svg width="18" height="18" viewBox="0 0 18 18" xmlns="http://www.w3.org/2000/svg"><path fill="#FDD835" d="M0 0h18v10H0z" shape-rendering="crispEdges"/><path d="M0 10h18v4H0v-4z" fill="#1E88E5" shape-rendering="crispEdges"/><path fill="#EF5350" stroke="#EF5350" d="M.5 14.5h17v3H.5z"/><path d="M9 12.13a3.13 3.13 0 1 0 0-6.26 3.13 3.13 0 0 0 0 6.26z" fill="#FDD835"/><path d="M9 10.96A1.96 1.96 0 0 1 7.04 9V7.83a1.96 1.96 0 0 1 3.92 0V9c0 1.08-.88 1.96-1.96 1.96z" fill="#1E88E5"/><path d="M12.13 4.3H9.78a.78.78 0 0 0-1.56 0H5.87c0 .44.38.79.8.79h-.02c0 .43.35.78.78.78 0 .43.35.78.79.78h1.56c.43 0 .79-.35.79-.78.43 0 .78-.35.78-.78h-.03a.8.8 0 0 0 .81-.79z" fill="#2A2E39"/></svg>