<svg width="18" height="18" viewBox="0 0 18 18" xmlns="http://www.w3.org/2000/svg"><path d="M0 0h18v18H0V0z" fill="#F0F3FA" shape-rendering="crispEdges"/><path d="M0 0h18v5H0V0z" fill="#2A2E39" shape-rendering="crispEdges"/><path d="M0 13h18v5H0v-5z" fill="#4CAF50" shape-rendering="crispEdges"/><path d="M9 9L0 0v18l9-9z" fill="#EF5350" shape-rendering="crispEdges"/><path d="M11.35 9c0-1.31.92-2.4 2.15-2.68A2.75 2.75 0 0 0 10.17 9a2.74 2.74 0 0 0 3.33 2.67A2.74 2.74 0 0 1 11.35 9z" fill="#EF5350"/><path d="M13.62 7.24l.38 1.2h1.26l-1.02.73.4 1.2-1.03-.74-1.01.74.39-1.2-1.02-.73h1.26l.38-1.2z" fill="#EF5350"/></svg>