<svg width="18" height="18" viewBox="0 0 18 18" xmlns="http://www.w3.org/2000/svg"><path d="M0 9h18v9H0V9z" fill="#1E88E5" shape-rendering="crispEdges"/><path d="M18 0v9H0V0h18z" fill="#4CAF50" shape-rendering="crispEdges"/><path d="M18 9L0 18V0l18 9z" fill="#EF5350" shape-rendering="crispEdges"/><path d="M4.7 5.28a3.13 3.13 0 0 0-3.13 3.13V9.6a3.13 3.13 0 0 0 6.26 0V8.4c0-1.72-1.4-3.13-3.13-3.13zm1.95 4.3c0 .88-.57 1.62-1.37 1.87v-1.28l.83-.83-.83-.83V7.83H4.11V9l-.83.83.83.83v.8c-.8-.26-1.37-1-1.37-1.87V8.4a1.96 1.96 0 0 1 3.91 0V9.6z" fill="#FDD835"/></svg>