<svg width="18" height="18" viewBox="0 0 18 18" xmlns="http://www.w3.org/2000/svg"><path d="M0 0h18v18H0V0z" fill="#0D47A1"/><path d="M14.8 11H10v1h1v1h4v-1h1v-1h-1.2z" fill="#FDD835"/><path d="M10 5v4.3c0 2.1 3 2.7 3 2.7s3-.6 3-2.7V5h-6z" fill="#4A89DC"/><path d="M13 8.21c-.75 0-.75.63-1.5.63s-.75-.63-1.5-.63v1.1c.75 0 .75.62 1.5.62s.75-.62 1.5-.62.75.62 1.5.62.75-.62 1.5-.62V8.2c-.75 0-.75.63-1.5.63s-.75-.63-1.5-.63zM13 6.02c-.75 0-.75.62-1.5.62s-.75-.62-1.5-.62v1.1c.75 0 .75.62 1.5.62s.75-.63 1.5-.63.75.63 1.5.63.75-.63 1.5-.63v-1.1c-.75 0-.75.63-1.5.63s-.75-.62-1.5-.62z" fill="#F8F9FD"/><path d="M9 4V0H0v9h4V6l3 3h2V7L6 4h3z" fill="#F8F9FD"/><path d="M3 1V0H1v1H0v2h1v6h2V3h6V1H3z" fill="#EF5350"/><path d="M9 8L5 4H4l5 5V8z" fill="#EF5350"/></svg>