<svg width="18" height="18" viewBox="0 0 18 18" xmlns="http://www.w3.org/2000/svg"><path d="M0 0h18v18H0V0z" fill="#4CAF50" shape-rendering="crispEdges"/><path d="M0 18h18L9 9l-9 9zM18 0H0l9 9 9-9z" fill="#FDD835" shape-rendering="crispEdges"/><path fill="#EF5350" d="M0 16h18v2H0zM0 0h18v2H0z" shape-rendering="crispEdges"/><path d="M9 12.13a3.13 3.13 0 1 0 0-6.26 3.13 3.13 0 0 0 0 6.26z" fill="#EF5350"/><path d="M9 5.87l.7 2.16h2.27l-1.83 1.33.7 2.16L9 10.2l-1.84 1.33.7-2.16-1.83-1.33H8.3L9 5.87zM9 0zM2.74 8.85a.78.78 0 0 1-1.32.84c-.42-.66-.18-1.74-.18-1.74s1.08.24 1.5.9z" fill="#FDD835"/><path d="M2.29 10a.4.4 0 1 0 0-.8.4.4 0 0 0 0 .8z" fill="#EF5350"/></svg>