<svg width="18" height="18" viewBox="0 0 18 18" xmlns="http://www.w3.org/2000/svg"><path d="M0 0h18v18H0V0z" fill="#F0F3FA" shape-rendering="crispEdges"/><path d="M0 18h18v-6H0v6z" fill="#EF5350" shape-rendering="crispEdges"/><path d="M0 6h18V0H0v6z" fill="#4CAF50" shape-rendering="crispEdges"/><path d="M0 0v18l9-9-9-9z" fill="#1565C0" shape-rendering="crispEdges"/><path d="M10.57 7.43V9.4c0 1.2 1.56 1.57 1.56 1.57s1.57-.37 1.57-1.57V7.43h-3.13z" fill="#D1D4DC"/><path d="M12.52 9.04h-.78v1.13h.78V9.04z" fill="#F9A825"/><path d="M12.91 8.6a.78.78 0 1 0-1.56 0 .4.4 0 1 0 0 .8h1.56a.4.4 0 0 0 0-.8z" fill="#4CAF50"/></svg>