<svg width="18" height="18" viewBox="0 0 18 18" xmlns="http://www.w3.org/2000/svg"><path d="M0 0h18v18H0V0z" fill="#0D47A1"/><path d="M12 7l1-1 1 1v2h-2V7z" fill="#F9A825"/><path d="M14 9h1l1 1v2h-2V9z" fill="#2A2E39"/><path fill="#F8F9FD" d="M12 9h2v3h-2z"/><path fill="#1E88E5" d="M12 11h1v1h-1zM13 10h1v1h-1zM12 9h1v1h-1z"/><path fill="#FF9800" d="M10 12h6v2h-6z"/><path d="M11 9h1v3h-2v-2l1-1z" fill="#B2B5BE"/><path fill="#4CAF50" d="M12 12h2v1h-2z"/><path d="M9 4V0H0v9h4V6l3 3h2V7L6 4h3z" fill="#F8F9FD"/><path d="M3 1V0H1v1H0v2h1v6h2V3h6V1H3z" fill="#EF5350"/><path d="M9 8L5 4H4l5 5V8z" fill="#EF5350"/></svg>