<svg width="18" height="18" viewBox="0 0 18 18" xmlns="http://www.w3.org/2000/svg"><path d="M0 0h18v18H0V0z" fill="#1565C0" shape-rendering="crispEdges"/><path fill="#EF5350" d="M0 0h18v1H0zM0 17h18v1H0zM8.5 14.68c-.13-.1-3.02-2.62-3.02-5.68 0-3.06 2.89-5.58 3.01-5.68L9 2.88l.5.44c.13.1 3.02 2.62 3.02 5.68 0 3.06-2.89 5.58-3.01 5.68l-.51.44-.5-.44z" shape-rendering="crispEdges"/><path d="M11.74 9C11.74 6.26 9 3.91 9 3.91S6.26 6.26 6.26 9c0 .84.26 1.64.61 2.35h4.26c.35-.71.6-1.51.6-2.35z" fill="#4A89DC"/><path d="M11.74 9c0 .84-.26 1.64-.61 2.35L9 11.74l-2.13-.4A5.28 5.28 0 0 1 6.27 9h5.47z" fill="#0D47A1"/><path d="M9 14.09s1.32-1.13 2.13-2.74H6.87A9.92 9.92 0 0 0 9 14.09z" fill="#FDD835"/><path d="M7.24 7.43h3.52L9 9.2 7.24 7.43z" fill="#4CAF50"/><path d="M9.59 8.6H8.4v3.53H9.6V8.61z" fill="#D32F2F"/></svg>