<svg width="18" height="18" viewBox="0 0 18 18" xmlns="http://www.w3.org/2000/svg"><path d="M0 5h18v8H0z" fill="#f0f3fa" shape-rendering="crispEdges"/><path d="M0 0h18v5H0zM0 13h18v5H0z" fill="#1e88e5" shape-rendering="crispEdges"/><path d="M5.54 5.87l.29.9h.94l-.76.55.3.9-.77-.56-.76.56.29-.9-.77-.55h.95l.29-.9zM5.54 9.78l.29.9h.94l-.76.55.3.9-.77-.55-.76.55.29-.9-.77-.55h.95l.29-.9zM12.46 5.87l.3.9h.94l-.77.55.3.9-.77-.56-.76.56.29-.9-.76-.55h.94l.3-.9zM12.46 9.78l.3.9h.94l-.77.55.3.9-.77-.55-.76.55.29-.9-.76-.55h.94l.3-.9zM9 7.83l.3.9h.93l-.76.55.3.9L9 9.61l-.76.55.29-.9-.76-.55h.94l.29-.9z" fill="#1e88e5"/></svg>