<svg width="18" height="18" viewBox="0 0 18 18" xmlns="http://www.w3.org/2000/svg"><path d="M0 0h18v18H0V0z" fill="#EF5350" shape-rendering="crispEdges"/><path d="M0 0h18v9H0V0z" fill="#1565C0" shape-rendering="crispEdges"/><path d="M12.13 11.35L9 10.95l-3.13.4v-4.7h6.26v4.7z" fill="#F8F9FD"/><path d="M9 10.96a1.57 1.57 0 1 0 0-3.13 1.57 1.57 0 0 0 0 3.13z" fill="#1565C0"/><path d="M9 10.17a.78.78 0 1 0 0-1.56.78.78 0 0 0 0 1.56z" fill="#EF5350"/><path d="M7.83 7.43h2.34L9 8.61 7.83 7.43z" fill="#4CAF50"/><path d="M9.4 8.22h-.8v2.35h.8V8.22z" fill="#FDD835"/><path d="M10.25 10.33h-2.5l-1.88 1.02h6.26l-1.88-1.02z" fill="#4CAF50"/></svg>