<svg width="18" height="18" viewBox="0 0 18 18" xmlns="http://www.w3.org/2000/svg"><path d="M0 0h18v18H0V0z" fill="#F0F3FA"/><path d="M14.21 10.63c-1.96 0-1.96-1.11-3.92-1.11-1.97 0-1.97 1.11-3.93 1.11-1.96 0-1.96-1.11-3.93-1.11-1.3 0-1.71.49-2.43.82v1.95c.72-.33 1.13-.82 2.43-.82 1.97 0 1.97 1.11 3.93 1.11 1.96 0 1.96-1.11 3.93-1.11 1.96 0 1.96 1.11 3.92 1.11 1.82 0 2.37-.97 3.93-1.11.2-.64 0-.96 0-1.95-1.93.01-1.97 1.11-3.93 1.11zM14.21 15.38c-1.96 0-1.96-1.12-3.92-1.12-1.97 0-1.97 1.12-3.93 1.12-1.96 0-1.96-1.12-3.93-1.12-1.3 0-1.71.5-2.43.82v1.95c.72-.33 1.13-.82 2.43-.82 1.97 0 1.97 1.11 3.93 1.11 1.96 0 1.96-1.1 3.93-1.1 1.96 0 1.96 1.1 3.92 1.1 1.82 0 2.37-.97 3.93-1.1.2-.65 0-.97 0-1.96-1.93.01-1.97 1.12-3.93 1.12zM14.21 5.95c-1.96 0-1.96-1.11-3.92-1.11-1.97 0-1.97 1.1-3.93 1.1-1.96 0-1.96-1.1-3.93-1.1-1.3 0-1.71.48-2.43.81V7.6c.72-.33 1.13-.82 2.43-.82C4.4 6.78 4.4 7.9 6.36 7.9c1.96 0 1.96-1.12 3.93-1.12 1.96 0 1.96 1.12 3.92 1.12 1.82 0 2.37-.97 3.93-1.12.2-.64 0-.96 0-1.94-1.93 0-1.97 1.1-3.93 1.1zM14.21 1.15c-1.96 0-1.96-1.12-3.92-1.12-1.97 0-1.97 1.12-3.93 1.12C4.4 1.15 4.4.03 2.43.03 1.13.03.72.53 0 .85V2.8c.72-.33 1.13-.82 2.43-.82C4.4 1.98 4.4 3.1 6.36 3.1 8.32 3.1 8.32 2 10.3 2c1.96 0 1.96 1.1 3.92 1.1 1.82 0 2.37-.97 3.93-1.1.2-.65 0-.97 0-1.96-1.93.02-1.97 1.12-3.93 1.12z" fill="#0D47A1"/><path d="M14 7.07h-1v2.15h1V7.07zM14 12.74h-1V15h1v-2.26z" fill="#D32F2F"/><path d="M15.85 11.57c0-.65-.53-1.18-1.18-1.18-.3 0-.46.11-.67.3V9h-1v1.7c-.2-.2-.37-.3-.67-.3a1.17 1.17 0 0 0-.79 2.04V13h3.92v-.56c.24-.21.39-.53.39-.87z" fill="#FDD835"/><circle cx="13.5" cy="5.93" r="1.72" fill="#66BB6A"/><path d="M14.62 11c-.29 0-.55.42-.75.62h-.74c-.2-.2-.46-.62-.76-.62-.2 0-.37.2-.37.43 0 .26.22.41.38.57h2.24c.16-.16.38-.31.38-.57 0-.24-.17-.43-.38-.43z" fill="#EF5350"/><path fill="#0D47A1" d="M0 0h9v9H0z"/><path d="M9 4V0H0v9h4V6l3 3h2V7L6 4h3z" fill="#F8F9FD"/><path d="M3 1V0H1v1H0v2h1v6h2V3h6V1H3z" fill="#EF5350"/><path d="M9 8L5 4H4l5 5V8z" fill="#EF5350"/></svg>