<svg width="18" height="18" viewBox="0 0 18 18" xmlns="http://www.w3.org/2000/svg"><path d="M0 18h18V0H0v18z" fill="#F8F9FD" shape-rendering="crispEdges"/><path d="M11.99 7h-1.2l.01.33c0 .74-.22 1.46-.61 1.98-.12.15-.32.38-.59.53V7H8.4v2.84a1.99 1.99 0 0 1-.59-.53A3.32 3.32 0 0 1 7.21 7h-1.2L6 7.33C6 9.4 7.32 11 9 11s3-1.61 3-3.67L11.99 7z" fill="#EF5350"/><path d="M0 19h18v-6H0v6z" fill="#EF5350" shape-rendering="crispEdges"/><path d="M0 5h18v-6H0v6z" fill="#4CAF50" shape-rendering="crispEdges"/></svg>