<svg width="18" height="18" viewBox="0 0 18 18" fill="none" xmlns="http://www.w3.org/2000/svg"><path fill="#EF5350" d="M0 0h18v9H0z" shape-rendering="crispEdges"/><path d="M12 8l-1.23.6.66 1.25-1.33-.26L9.93 11 9 9.96 8.07 11 7.9 9.59l-1.33.26.66-1.24L6 8l1.23-.6-.66-1.25 1.33.26L8.07 5 9 6.04 9.93 5l.17 1.41 1.33-.26-.66 1.24L12 8zM11 2.5H9.5a.5.5 0 0 0-1 0H7c0 .28.24.5.52.5H7.5c0 .28.22.5.5.5 0 .28.22.5.5.5h1a.5.5 0 0 0 .5-.5.5.5 0 0 0 .5-.5h-.02c.28 0 .52-.22.52-.5z" fill="#FDD835"/><path fill="#1565C0" d="M0 9h18v9H0z" shape-rendering="crispEdges"/><path d="M21 14l-1.25 1a2 2 0 0 1-2.5 0v0a2 2 0 0 0-2.5 0v0a2 2 0 0 1-2.5 0v0a2 2 0 0 0-2.5 0v0a2 2 0 0 1-2.5 0v0a2 2 0 0 0-2.5 0v0a2 2 0 0 1-2.5 0v0a2 2 0 0 0-2.5 0v0a2 2 0 0 1-2.5 0L-4 14M21 11l-1.25 1a2 2 0 0 1-2.5 0v0a2 2 0 0 0-2.5 0v0a2 2 0 0 1-2.5 0v0a2 2 0 0 0-2.5 0v0a2 2 0 0 1-2.5 0v0a2 2 0 0 0-2.5 0v0a2 2 0 0 1-2.5 0v0a2 2 0 0 0-2.5 0v0a2 2 0 0 1-2.5 0L-4 11M21 8l-1.25 1a2 2 0 0 1-2.5 0v0a2 2 0 0 0-2.5 0v0a2 2 0 0 1-2.5 0v0a2 2 0 0 0-2.5 0v0a2 2 0 0 1-2.5 0v0a2 2 0 0 0-2.5 0v0a2 2 0 0 1-2.5 0v0a2 2 0 0 0-2.5 0v0a2 2 0 0 1-2.5 0L-4 8" stroke="#F8F9FD" shape-rendering="crispEdges"/></svg>