<svg width="18" height="18" viewBox="0 0 18 18" xmlns="http://www.w3.org/2000/svg"><path d="M0 0h18v18H0V0z" fill="#F0F3FA" shape-rendering="crispEdges"/><path fill="#FDD835" d="M0 0h18v5H0z" shape-rendering="crispEdges"/><path fill="#EF5350" d="M0 9h18v4H0z" shape-rendering="crispEdges"/><path fill="#0D47A1" d="M0 13h18v5H0z" shape-rendering="crispEdges"/><path d="M4.33 13.28c-.8.8-1.12 1.49-1.7 2.07a9 9 0 0 0 14.3-2.07H4.32z" fill="#0D47A1"/><path d="M0 0v18l9-9.03L0 0z" fill="#4CAF50" shape-rendering="crispEdges"/><path d="M2.37 8.97c0-1.3.93-2.4 2.16-2.67A2.75 2.75 0 0 0 1.2 8.97a2.74 2.74 0 0 0 3.33 2.68 2.74 2.74 0 0 1-2.16-2.68z" fill="#F8F9FD"/><path d="M4.5 6.63l.14.44h.47l-.38.28.15.45-.38-.28-.39.28.15-.45-.38-.28h.47l.15-.44z" fill="#F8F9FD"/><path d="M4.5 7.8l.14.45h.47l-.38.28.15.44-.38-.27-.39.27.15-.44-.38-.28h.47l.15-.45zM4.5 8.97l.14.45h.47l-.38.28.15.45-.38-.28-.39.28.15-.45-.38-.28h.47l.15-.45zM4.5 10.15l.14.45h.47l-.38.27.15.45-.38-.28-.39.28.15-.45-.38-.27h.47l.15-.45z" fill="#F8F9FD"/></svg>