<svg width="18" height="18" viewBox="0 0 18 18" xmlns="http://www.w3.org/2000/svg"><path d="M0 18h18V0H0v18z" fill="#FDD835" shape-rendering="crispEdges"/><path d="M0 0v11L16.5 0H0z" fill="#4CAF50" shape-rendering="crispEdges"/><path d="M1.5 18H18V7L1.5 18z" fill="#EF5350" shape-rendering="crispEdges"/><path d="M18 0L0 12v6L18 6V0z" fill="#2A2E39" shape-rendering="crispEdges"/><path d="M6.35 12.8l-1.47-.05-.58 1.45-.33-1.49-1.47-.05 1.27-.86-.33-1.49 1.1 1 1.28-.87-.58 1.41 1.1.95zm9.17-6.29l-1.47-.05-.58 1.45-.33-1.49-1.5-.05 1.26-.86L12.58 4l1.14 1 1.27-.87-.6 1.43 1.13.95z" fill="#F8F9FD"/></svg>