<svg width="18" height="18" viewBox="0 0 18 18" xmlns="http://www.w3.org/2000/svg"><path fill="#F8F9FD" d="M0 0h18v18H0z" shape-rendering="crispEdges"/><path d="M18 0H0v3h18V0zM18 15H0v3h18v-3z" fill="#1565C0" shape-rendering="crispEdges"/><path d="M18 4H0v10h18V4z" fill="#EF5350" shape-rendering="crispEdges"/><path d="M6 13c2.13 0 4-1.87 4-4S8.13 5 6 5 2 6.87 2 9s1.87 4 4 4z" fill="#F8F9FD"/><path d="M5.96 5l.96 2.86H10L7.47 9.32 8.4 12l-2.45-1.66L3.5 12l.94-2.68L2 7.86h3.08L5.96 5z" fill="#EF5350"/></svg>