<svg width="18" height="18" viewBox="0 0 18 18" xmlns="http://www.w3.org/2000/svg"><path d="M0 0h18v18H0V0z" fill="#0D47A1"/><path d="M10 11v1h.6c.6.48 1.2 1 2.4 1 1.3 0 1.76-.52 2.35-1H16v-1h-6z" fill="#FDD835"/><path d="M10 9V5h6v4c0 2.3-3 3-3 3s-3-.7-3-3z" fill="#4A89DC"/><path d="M13 7a2 2 0 1 0 0-4 2 2 0 0 0 0 4z" fill="#4CAF50"/><path d="M13 8c-.75 0-.75.73-1.5.73S10.75 8 10 8v1.27c.75 0 .75.73 1.5.73s.75-.73 1.5-.73.75.73 1.5.73.75-.73 1.5-.73V8c-.75 0-.75.73-1.5.73S13.75 8 13 8zM13 6c-.75 0-.75.73-1.5.73S10.75 6 10 6v1.27c.75 0 .75.73 1.5.73s.75-.73 1.5-.73.75.73 1.5.73.75-.73 1.5-.73V6c-.75 0-.75.73-1.5.73S13.75 6 13 6z" fill="#F8F9FD"/><path d="M9 4V0H0v9h4V6l3 3h2V7L6 4h3z" fill="#F8F9FD"/><path d="M3 1V0H1v1H0v2h1v6h2V3h6V1H3z" fill="#EF5350"/><path d="M9 8L5 4H4l5 5V8z" fill="#EF5350"/></svg>