<svg width="18" height="18" viewBox="0 0 18 18" xmlns="http://www.w3.org/2000/svg"><path d="M0 0h18v18H0V0z" fill="#2A2E39" shape-rendering="crispEdges"/><path d="M0 0h18v5H0V0z" fill="#EF5350" shape-rendering="crispEdges"/><path d="M0 13h18v5H0v-5z" fill="#4CAF50" shape-rendering="crispEdges"/><path d="M11.1 7.35l.73 1.02 1.2-.39L12.29 9l.74 1.02-1.2-.4-.74 1.03V9.39l-1.2-.4 1.2-.38V7.35z" fill="#F8F9FD"/><path d="M9.08 11.54a2.54 2.54 0 1 1 1.2-4.78A3.12 3.12 0 0 0 4.99 9a3.13 3.13 0 0 0 5.3 2.24c-.35.2-.76.3-1.2.3z" fill="#F8F9FD"/></svg>