<svg width="18" height="18" viewBox="0 0 18 18" xmlns="http://www.w3.org/2000/svg"><path d="M0 0h18v18H0V0z" fill="#EF5350" shape-rendering="crispEdges"/><path fill="#FDD835" d="M0 0h18v2H0zM0 16h18v2H0zM7 6h4V5h-1L9 4 8 5H7v1zM13 8.38h-2.22c.09-.13.14-.29.14-.46 0-.5-.46-.92-1.03-.92-.4 0-.73.2-.9.49a1.05 1.05 0 0 0-.9-.49c-.57 0-1.03.41-1.03.92 0 .17.05.33.13.46H5C5 9 5.6 9.5 6.27 9.5h-.04c0 .5.37.93.88 1.06l-1 .9.94.85 1.34-1.2.16.04-.8 1.64a3.65 3.65 0 0 0 2.5 0l-.8-1.64.16-.04 1.34 1.2.94-.85-1-.9c.5-.13.88-.56.88-1.06h-.04C12.4 9.5 13 9 13 8.4z" shape-rendering="crispEdges"/><path d="M9 9l-1 .7v1.38L9 12l1-.92V9.69L9 9z" fill="#4CAF50"/><path d="M10 8H8v1h2V8z" fill="#0D47A1"/></svg>