<svg width="18" height="18" viewBox="0 0 18 18" xmlns="http://www.w3.org/2000/svg"><path d="M0 0h18v18H0V0z" fill="#4CAF50"/><path d="M10.57 8.62c-.23 0-.44.05-.63.12.1-.24.18-.5.18-.79C10.12 6.84 9 6 9 6s-1.12.84-1.12 1.95c0 .29.07.55.18.79-.2-.07-.4-.12-.62-.12-1.12 0-1.96 1.12-1.96 1.12s.84 1.12 1.96 1.12c.65 0 1.21-.38 1.56-.7.35.32.91.7 1.57.7 1.11 0 1.95-1.12 1.95-1.12s-.84-1.12-1.95-1.12z" fill="#F8F9FD"/><path d="M9 3.52l.23.71h.75l-.6.44.22.71-.6-.44-.6.44.23-.7-.6-.45h.74l.23-.7zM6.16 4.76l.44.4.52-.3-.24.55.44.4-.6-.06-.24.55-.12-.59-.6-.06.52-.3-.12-.59zM4.08 6.85l.58.12.3-.52.06.6.59.12-.55.24.07.6-.4-.45-.55.25.3-.52-.4-.44zM11.84 4.76l-.44.4-.52-.3.24.55-.44.4.6-.06.24.55.12-.59.6-.06-.52-.3.12-.59zM13.92 6.85l-.58.12-.3-.52-.06.6-.59.12.55.24-.06.6.4-.45.54.25-.3-.52.4-.44z" fill="#FDD835"/><path d="M9 14c.89 0 1.7-.3 2.36-.8H6.64c.65.5 1.47.8 2.36.8zM5.41 11.64c.13.29.28.55.47.8h6.24c.19-.25.34-.51.47-.8H5.4z" fill="#F8F9FD"/></svg>