<svg width="18" height="18" viewBox="0 0 18 18" xmlns="http://www.w3.org/2000/svg"><path d="M0 0h18v18H0V0z" fill="#4A89DC"/><path d="M8.72 14.67a.59.59 0 0 1-.53-.39.59.59 0 0 1-1.04-.27.59.59 0 0 1-.97-.47.59.59 0 0 1-.86-.66.59.59 0 0 1-.7-.82.59.59 0 0 1-.53-.95.59.59 0 0 1-.32-1.03.59.59 0 0 1-.11-1.07.59.59 0 0 1 .1-1.08.59.59 0 0 1 .33-1.03.59.59 0 0 1 .52-.95.59.59 0 0 1 .7-.82.59.59 0 0 1 .86-.66.59.59 0 0 1 .97-.48.59.59 0 0 1 1.04-.27.59.59 0 0 1 1.08-.06.59.59 0 0 1 1.07.16.59.59 0 0 1 1.01.38.59.59 0 0 1 .92.57.59.59 0 0 1 .79.74.59.59 0 0 1 .62.89.59.59 0 0 1 .43.99.59.59 0 0 1 .22 1.06c.2.09.35.3.35.54V9c0 .24-.14.45-.35.54a.59.59 0 0 1-.22 1.06.59.59 0 0 1-.43 1 .59.59 0 0 1-.61.88.59.59 0 0 1-.79.74.59.59 0 0 1-.91.58.59.59 0 0 1-1.01.38.59.59 0 0 1-1.08.16c-.1.2-.3.33-.52.33h-.03z" fill="#F8F9FD"/><path d="M9 12.91A3.91 3.91 0 1 0 9 5.1a3.91 3.91 0 0 0 0 7.82z" fill="#4A89DC"/><path d="M9.86 7.67c.19-.14.31-.37.31-.63v-.39a.78.78 0 0 0-.78-.78h-.78a.78.78 0 0 0-.78.78v.4c0 .25.12.48.31.62l-.7 7.2s.39.4 1.56.4 1.57-.4 1.57-.4l-.71-7.2z" fill="#B2B5BE"/><path d="M9 5.87l.68 2.1h2.2L10.1 9.25l.68 2.09L9 10.05l-1.78 1.3.68-2.1-1.78-1.29h2.2L9 5.86z" fill="#F8F9FD"/></svg>