<svg width="18" height="18" viewBox="0 0 18 18" xmlns="http://www.w3.org/2000/svg"><path d="M0 0h18v18H0V0z" fill="#EF5350" shape-rendering="crispEdges"/><path d="M0 12h18v6H0v-6z" fill="#4CAF50" shape-rendering="crispEdges"/><path d="M0 0h18v6H0V0z" fill="#1565C0" shape-rendering="crispEdges"/><path d="M11 9.5a4.5 4.5 0 1 1-9 0 4.5 4.5 0 0 1 9 0z" fill="#FDD835"/><path d="M6.4 8.95V5h.18v3.95h.67v.19h-.67v.95h.67v.18h-.67v2.45h-.19v-2.45h-.67v-.18h.67v-.95h-.67v-.19h.67z" fill="#2A2E39"/><path d="M4.67 13.65c1.84.76 3.57.05 3.57.05s-.65-.7-.99-.98c-.32-.27-1.28-.26-1.61 0-.28.21-1.06 1-.97.93zM6.49 12.32c.27 0 .5-.33.5-.73 0-.4-.23-.74-.5-.74-.28 0-.51.33-.51.74 0 .4.23.73.5.73zM6.49 10c.33 0 .6-.17.6-.39 0-.21-.27-.39-.6-.39-.34 0-.62.18-.62.4 0 .2.28.38.62.38zM6.49 8.43a.61.61 0 1 0 0-1.22.61.61 0 0 0 0 1.22zM7.22 5.54s.05.08-.06.29C6.63 6.79 6.1 6.8 6 6.89c-.11.1-.16.09-.16.09l.02-.46c.08-.45.76-.44 1.3-.9.08-.07.07-.08.07-.08z" fill="#2A2E39"/><path d="M5.43 7.6s.12.35.14.7c.03.54.55.56.92.56v-.3c-.28 0-.51-.05-.7-.45-.1-.2-.36-.5-.36-.5zM5.41 12.05s.2-.24.42-.8c.12-.29.4-.46.66-.46v-.43c-.59 0-.87.22-.9.53-.06.65-.18 1.16-.18 1.16z" fill="#2A2E39"/></svg>