<svg width="18" height="18" viewBox="0 0 18 18" xmlns="http://www.w3.org/2000/svg"><path d="M0 18h18V0H0v18z" fill="#F8F9FD" shape-rendering="crispEdges"/><path d="M0 18h15.71L7.5 10H14L2 0H0v18z" fill="#1565C0" shape-rendering="crispEdges"/><path d="M0 18h14L5 9h6L0 0v18z" fill="#EF5350" shape-rendering="crispEdges"/><path d="M5 6.75c.47-.32.74-.76 1-1.27A2.5 2.5 0 0 1 3.56 8 2.54 2.54 0 0 1 1 5.48v-.04c.24.55.5 1 1 1.3l.5-.24v-1H3l.5-.5.5.5h.5v1l.5.25zm1 6.7L5 14v1H4l-.46 1L3 15H2v-1l-1-.55L2 13v-1h1l.54-1L4 12h1v1l1 .45z" fill="#F8F9FD"/></svg>