<svg width="18" height="18" viewBox="0 0 18 18" xmlns="http://www.w3.org/2000/svg"><path d="M0 0h18v18H0V0z" fill="#F0F3FA" shape-rendering="crispEdges"/><path d="M0 13h18v5H0v-5zM0 0h18v5H0V0z" fill="#EF5350" shape-rendering="crispEdges"/><path d="M12.13 9c0 1.73-1.4 2.74-3.13 2.74S5.87 10.73 5.87 9a3.13 3.13 0 1 1 6.26 0z" fill="#FDD835"/><path d="M12.13 9a3.13 3.13 0 1 1-6.26 0" fill="#1565C0"/><path d="M7.83 8.22h-.79v1.56h.79V8.22zM10.96 8.22h-.79v1.56h.79V8.22zM9.4 7.04h-.8v2.74h.8V7.04z" fill="#EF5350"/></svg>