<svg width="18" height="18" viewBox="0 0 18 18" xmlns="http://www.w3.org/2000/svg"><path d="M0 0h18v18H0V0z" fill="#2A2E39" shape-rendering="crispEdges"/><path d="M0 0h18v18L0 0z" fill="#EF5350" shape-rendering="crispEdges"/><path d="M6.88 12.13l.14.45h.48l-.39.28.15.44-.38-.27-.38.27.14-.44-.38-.28h.47l.15-.45zM5.67 7.83l.25.74h.78l-.63.47.24.74-.64-.46-.63.46.24-.74-.63-.47h.78l.24-.74zM5.67 13.3l.25.75h.78l-.63.46.24.75-.64-.46-.63.46.24-.75-.63-.46h.78l.24-.75zM7.97 9.78l.24.75H9l-.64.46.25.75-.64-.46-.63.46.24-.75-.64-.46h.79l.24-.75zM3.38 9.78l.24.75h.78l-.63.46.24.75-.63-.46-.64.46.24-.75-.63-.46h.78l.25-.75z" fill="#F8F9FD"/><path d="M15.07 6.66c-.4-.4-.93-.64-1.49-.68l1.68-1.3a3.12 3.12 0 0 0-2.44-.91c-.1-.38-.3-.73-.6-1.03l-.67 1.33a.98.98 0 1 0-1.32 1.33l-1.33.66c.3.3.65.5 1.03.6-.07.88.23 1.77.9 2.44l1.47-1.89a.58.58 0 0 1 .83 0 .58.58 0 0 1 0 .84l.55.55a1.36 1.36 0 0 0 .13-1.79 1.57 1.57 0 0 1 .7 2.62l.56.55a2.33 2.33 0 0 0 0-3.32z" fill="#FDD835"/></svg>