<svg width="18" height="18" viewBox="0 0 18 18" xmlns="http://www.w3.org/2000/svg"><path d="M0 0h18v18H0V0z" fill="#0D47A1"/><path d="M9 4V0H0v9h4V6l3 3h2V7L6 4h3z" fill="#F8F9FD"/><path d="M3 1V0H1v1H0v2h1v6h2V3h6V1H3z" fill="#EF5350"/><path d="M9 8L5 4H4l5 5V8z" fill="#EF5350"/><path d="M10 9V5h6v4c0 2.3-3 3-3 3s-3-.7-3-3z" fill="#4CAF50"/><path d="M16 8.25L13 6l-3 2.25V5h6v3.25z" fill="#2196F3"/><path d="M10 8.33L12 5h2l2 3.33V9c0 .52-.16.97-.4 1.34L13 6l-2.6 4.34A2.4 2.4 0 0 1 10 9v-.67z" fill="#FDD835"/></svg>