<svg width="18" height="18" viewBox="0 0 18 18" xmlns="http://www.w3.org/2000/svg"><path d="M0 13h18v5H0v-5z" fill="#1565C0" shape-rendering="crispEdges"/><path d="M0 0h18v5H0V0z" fill="#EF5350" shape-rendering="crispEdges"/><path d="M0 5h18v8H0V5z" fill="#F8F9FD" shape-rendering="crispEdges"/><path d="M9 7.2l.35 1.15h1.15l-.93.7.36 1.15L9 9.5l-.93.7.36-1.15-.93-.7h1.15L9 7.2z" fill="#FDD835"/><path d="M12 9a3 3 0 1 1-4.73-2.45l.46.9a2 2 0 1 0 2.54 0l.46-.9A3 3 0 0 1 12 9z" fill="#4CAF50"/></svg>