<svg width="18" height="18" viewBox="0 0 18 18" xmlns="http://www.w3.org/2000/svg"><path d="M0 0h18v18H0V0z" fill="#4A89DC" shape-rendering="crispEdges"/><path d="M0 0h18v9H0V0z" fill="#F8F9FD" shape-rendering="crispEdges"/><path d="M12.57 6.21L9 9.78 5.43 6.21a4.28 4.28 0 0 0-.73 2.4v1.17c0 1.89 1.21 3.5 2.9 4.07-.22.45-.18 1 .15 1.41l1.28-1.02 1.28 1.02c.33-.42.36-.98.13-1.42a4.31 4.31 0 0 0 2.86-4.06V8.61c0-.89-.27-1.71-.73-2.4z" fill="#4CAF50"/><path d="M9 12.91a3.13 3.13 0 0 1-3.13-3.13V8.61a3.13 3.13 0 0 1 6.26 0v1.17c0 1.73-1.4 3.13-3.13 3.13z" fill="#FDD835"/><path d="M10.96 9.78V8.61a1.96 1.96 0 0 0-3.92 0v1.17l1.96.4 1.96-.4z" fill="#4A89DC"/><path d="M7.04 9.78a1.96 1.96 0 0 0 3.92 0H7.04z" fill="#4CAF50"/><path d="M11.35 5.48a1.17 1.17 0 0 0-1.96-.88v-.69h.4v-.78h-.4v-.4h-.78v.4h-.4v.78h.4v.7a1.17 1.17 0 0 0-1.57 1.75v.68h3.92v-.69c.24-.21.39-.52.39-.87z" fill="#FDD835"/></svg>