<svg width="18" height="18" viewBox="0 0 18 18" xmlns="http://www.w3.org/2000/svg"><path d="M0 0h18v18H0V0z" fill="#FDD835" shape-rendering="crispEdges"/><path d="M0 0h18v6H0V0zM0 12h18v6H0v-6z" fill="#4CAF50" shape-rendering="crispEdges"/><path d="M9 9L0 0v18l9-9z" fill="#EF5350" shape-rendering="crispEdges"/><path d="M11.43 7.43l.39 1.2h1.25l-1.01.74.39 1.2-1.02-.74-1.02.74.39-1.2-1.02-.74h1.26l.39-1.2zM15.34 7.43l.39 1.2h1.26l-1.02.74.39 1.2-1.02-.74-1.02.74.4-1.2-1.02-.74h1.25l.4-1.2z" fill="#2A2E39"/></svg>