<svg width="18" height="18" viewBox="0 0 18 18" xmlns="http://www.w3.org/2000/svg"><path d="m0 5h18v8H0z" fill="#f0f3fa" shape-rendering="crispEdges"/><path d="m0 0h18v5H0zm0 13h18v5H0z" fill="#1565c0" shape-rendering="crispEdges"/><path d="m7.2 9.4L9 6.25l1.8 3.13H7.2z" fill="#fdd835"/><path d="m11.35 10.43L9 11.6l-2.35-1.17V8.86h4.7v1.57z" fill="#4caf50"/><path d="m11.21 6.4l-.83.83A1.95 1.95 0 0 1 9 10.57a1.96 1.96 0 0 1-1.38-3.34l-.83-.83A3.12 3.12 0 0 0 9 11.74a3.13 3.13 0 0 0 2.21-5.34z" fill="#fdd835"/></svg>