<svg width="18" height="18" viewBox="0 0 18 18" xmlns="http://www.w3.org/2000/svg"><path d="M0 0h18v9H0V0z" fill="#EF5350" shape-rendering="crispEdges"/><path d="M0 9h18v9H0V9z" fill="#0D47A1" shape-rendering="crispEdges"/><path d="M9 9L0 0v18l9-9z" fill="#F8F9FD" shape-rendering="crispEdges"/><path d="M.99 9l-.01.2A2.54 2.54 0 1 0 6.06 9H.99zM3.52 7.83a.78.78 0 1 0 0-1.57.78.78 0 0 0 0 1.57z" fill="#FDD835"/><path d="M1.76 6.85v2.54c0 1.35 1.76 1.76 1.76 1.76s1.76-.41 1.76-1.76V6.85H1.76z" fill="#EF5350"/><path d="M3.52 10.33c-.32-.11-.98-.41-.98-.94V7.63H4.5V9.4c0 .53-.65.83-.98.94z" fill="#4A89DC"/><path d="M3.91 8.6v-.38l-.39-.2-.39.2v.39l-.2.2v.78h1.18V8.8l-.2-.2z" fill="#F8F9FD"/></svg>