<svg width="18" height="18" viewBox="0 0 18 18" xmlns="http://www.w3.org/2000/svg"><path d="M0 0h18v18H0V0z" fill="#F0F3FA" shape-rendering="crispEdges"/><path d="M0 0h18v5H0V0z" fill="#EF5350" shape-rendering="crispEdges"/><path d="M0 13h18v5H0v-5z" fill="#2A2E39" shape-rendering="crispEdges"/><path d="M5.38 6.85l.48 1.5h1.57l-1.27.92.49 1.5-1.27-.93-1.27.92.48-1.5-1.27-.92h1.57l.49-1.5zM12.62 6.85l.49 1.5h1.57l-1.27.92.48 1.5-1.27-.93-1.27.92.49-1.5-1.27-.92h1.57l.48-1.5z" fill="#4CAF50"/></svg>