<svg width="18" height="18" viewBox="0 0 18 18" xmlns="http://www.w3.org/2000/svg"><path d="M0 0h18v18H0V0z" fill="#1565C0" shape-rendering="crispEdges"/><path d="M0 3h18v2H0V3zM0 13h18v2H0v-2z" fill="#FDD835" shape-rendering="crispEdges"/><path d="M0 5h18v8H0V5z" fill="#EF5350"/><path d="M15.21 7.71l-.82.29.82.29.81-.29-.81-.29z" fill="#F8F9FD"/><path d="M1 9h16.5" stroke="#FDD835" stroke-width=".5"/><path d="M1.29 8.87h1.58v.97a.8.8 0 0 1-1.58 0v-.97zM15.55 8.82h1.59v.97a.8.8 0 1 1-1.59 0v-.97z" fill="#1565C0"/><path d="M3 8h12" stroke="#FDD835" stroke-width=".5"/><path d="M14 9c0-1.6-3.33-2.67-5-3v6c1.67-.33 5-1.4 5-3z" fill="#F8F9FD"/><path d="M4 9c0-1.6 3.33-2.67 5-3v6c-1.67-.33-5-1.4-5-3zM6.19 8.64v-.77.77zm.46-.77v.77-.77zm.47 0v.77-.77z" fill="#2A2E39"/><path d="M6.07 8.64v-.77h.24v.77h-.24zm.7-.77v.77h-.23v-.77h.23zm.23.77v-.77h.24v.77H7z" fill="#F8F9FD"/><path d="M7.24 6.52h1.58v.98a.8.8 0 0 1-1.58 0v-.98z" fill="#1565C0"/></svg>