<svg width="18" height="18" viewBox="0 0 18 18" xmlns="http://www.w3.org/2000/svg"><path d="M0 0h18v18H0V0z" fill="#0D47A1"/><path d="M10 5v4.28c0 2.08 3 2.72 3 2.72s3-.64 3-2.72V5h-6z" fill="#FDD835"/><path d="M12.52 6.26c0 .43-.35 1.57-.78 1.57-.43 0-.78-1.14-.78-1.57 0-.43.78-.78.78-.78s.78.35.78.78z" fill="#FF9800"/><path d="M14.6 7.11c.12-.3.22-.76.22-.98 0-.36-.47-.65-.47-.65s-.47.3-.47.65c0 .22.1.68.23.98l-.27.62a1.37 1.37 0 0 0 1.03 0l-.27-.62z" fill="#D32F2F"/><path d="M12.33 9s-.4.78-.4 1.57h1.96c0-.79-.39-1.57-.39-1.57l-.59-.4-.58.4z" fill="#4CAF50"/><path d="M13.5 9v-.2a.59.59 0 0 0-1.17 0V9h1.17z" fill="#EF5350"/><path d="M9 4V0H0v9h4V6l3 3h2V7L6 4h3z" fill="#F8F9FD"/><path d="M3 1V0H1v1H0v2h1v6h2V3h6V1H3z" fill="#EF5350"/><path d="M9 8L5 4H4l5 5V8z" fill="#EF5350"/></svg>