<svg width="18" height="18" viewBox="0 0 18 18" xmlns="http://www.w3.org/2000/svg"><path fill="#143EB2" d="M0 0h18v18H0z" shape-rendering="crispEdges"/><path fill="#F8F9FD" d="M0 0h9v9H0z" shape-rendering="crispEdges"/><path d="M0 0h3v9H0V0Z" fill="#143EB2" shape-rendering="crispEdges"/><path d="M6 0h3v9H6V0Z" fill="#F7525F" shape-rendering="crispEdges"/><path d="m11.01 10 .43.71h1.2v2.48l-.9-1.49-1.22 2.05h.76l.11-.18h.76l.87 1.43.87-1.43h.76l.11.18h.76L14.3 11.7l-.9 1.5v-1.38h.54l.4-.67h-.94v-.44h1.2l.43-.71H11Zm.73 2.56.3.44h-.53l.23-.44Zm2.55.05.23.39h-.48l.25-.4ZM14.85 14.48l.17.52h.54l-.44.32.17.52-.44-.32-.44.32.17-.52-.44-.32h.54l.17-.52ZM13.02 15.5l.17.5h.55l-.45.33.17.52-.44-.32-.44.32.18-.52-.45-.33h.55l.16-.5ZM11.42 14.49l-.17.51h-.55l.45.32-.17.52.44-.32.44.32-.17-.52.44-.32h-.55l-.16-.51ZM15.9 10.5l.17.5h.55l-.44.33.17.52-.44-.32-.44.32.17-.52-.45-.33h.55l.17-.5ZM10.09 10.5l.16.5h.55l-.45.33.18.52-.44-.32-.45.32.18-.52-.45-.33h.55l.17-.5Z" fill="#fff"/></svg>