<svg width="18" height="18" viewBox="0 0 18 18" xmlns="http://www.w3.org/2000/svg"><path d="M0 18h18V0H0v18z" fill="#FDD835" shape-rendering="crispEdges"/><path d="M0 4h18V0H0v4zm0 7h18V7H0v4z" fill="#4CAF50" shape-rendering="crispEdges"/><path d="M0 11h11V0H0v11z" fill="#EF5350" shape-rendering="crispEdges"/><path d="M4.62 4.6L5.51 2l.81 2.54S9 4.62 9 4.54C9 4.45 6.86 6.2 6.86 6.2s1 2.92.96 2.77a26.42 26.42 0 0 0-2.31-1.63S3.16 9 3.2 9c.03 0 .88-2.77.88-2.77L2 4.63h2.68l-.06-.04z" fill="#F8F9FD"/><path d="M0 18h27v-4H0v4z" fill="#4CAF50" shape-rendering="crispEdges"/></svg>