<svg width="18" height="18" viewBox="0 0 18 18" xmlns="http://www.w3.org/2000/svg"><path d="M0 0h18v18H0V0z" fill="#0D47A1" shape-rendering="crispEdges"/><path d="M18 14H5v-1h13v-1H5l9-8c-.08.4 0 .58 0 1 0 2.43 1.96 5.05 4 6v3z" fill="#FDD835" shape-rendering="crispEdges"/><path d="M6.61 4.7l.2.6h.62l-.5.36.19.6-.5-.37-.52.37.2-.6-.51-.37h.63l.2-.6zM4.06 9l.24.75h.79l-.64.46.24.75-.63-.47-.64.47.25-.75-.64-.46h.79L4.06 9zM4.06 2.74l.24.75h.79l-.64.46.24.75-.63-.47-.64.47.25-.75-.64-.46h.79l.24-.75zM2.1 6.26l.24.75h.79l-.64.46.25.75-.64-.46-.63.46.24-.75-.64-.46h.79l.24-.75z" fill="#F8F9FD"/></svg>