<svg width="18" height="18" viewBox="0 0 18 18" xmlns="http://www.w3.org/2000/svg"><path d="M0 0h18v18H0V0z" fill="#4CAF50" shape-rendering="crispEdges"/><path d="M13.16 6.79a2.74 2.74 0 0 0-1.12-3.25 2.75 2.75 0 0 1 2.23 3.65 2.74 2.74 0 0 1-4.04 1.4 2.74 2.74 0 0 0 2.93-1.8zM10.7 3.2l-.38.5-.59-.21.35.52-.38.5.6-.18.36.52.02-.63.6-.17-.6-.22.03-.62z" fill="#F8F9FD"/><path d="M11.75 4.83l-.39.5-.59-.22.35.52-.38.5.6-.18.36.52.02-.63.6-.17-.6-.22.03-.62zM8.88 3.8l-.39.5-.6-.22.36.52-.38.5.6-.18.36.52.01-.63.6-.17-.58-.22.02-.62zM8.83 5.65l-.38.5-.6-.21.36.52-.38.5.6-.18.35.52.02-.63.6-.18-.59-.21.02-.63zM10.6 6.28l-.39.5-.59-.21.36.52-.39.5.6-.18.36.52.02-.63.6-.17-.59-.22.02-.63z" fill="#F8F9FD"/><path d="M2 0v18h5V0H2z" fill="#EF5350" shape-rendering="crispEdges"/><path d="M4 4L3 3l1-1h1l1 1-1 1H4zM4 16l-1-1 1-1h1l1 1-1 1H4z" fill="#F8F9FD"/><path d="M4.8 9.5h-.6L3.7 9l.5-.5h.6l.5.5-.5.5zM5 11.5h.5v1h-2v-1H5zM5 5.5h.5v1h-2v-1H5z" stroke="#4CAF50"/></svg>