<svg width="18" height="18" viewBox="0 0 18 18" xmlns="http://www.w3.org/2000/svg"><path d="M0 0h18v18H0V0z" fill="#F0F3FA"/><path d="M10.56 5.53C10.56 4.68 9.86 4 9 4c-.86 0-1.56.68-1.56 1.53H4c0 .83.74 1.5 1.59 1.5h-.05c0 .83.69 1.5 1.54 1.5 0 .74.54 1.36 1.25 1.49h1.34a1.51 1.51 0 0 0 1.25-1.48c.85 0 1.54-.68 1.54-1.5h-.05c.85 0 1.59-.68 1.59-1.51h-3.44z" fill="#FDD835"/><path d="M8.31 9.87l-.97 2.14a4.47 4.47 0 0 0 3.32 0l-.97-2.14H8.3z" fill="#FDD835"/><path d="M7.04 7.04v2.63c0 1.5 1.96 1.96 1.96 1.96s1.96-.46 1.96-1.96V7.04H7.04z" fill="#F8F9FD"/><path d="M3 8l1 3 1-3h1l-1.33 4H3.33L2 8h1zM14 12V8h1v4h-1z" fill="#4A89DC"/><path d="M7.83 7.89v3.19c.27.2.55.33.78.42V7.9h-.78zM10.17 7.89v3.19c-.27.2-.55.33-.78.42V7.9h.78z" fill="#EF5350"/><path d="M11 7H7v1h4V7z" fill="#0D47A1"/></svg>