<svg width="18" height="18" viewBox="0 0 18 18" xmlns="http://www.w3.org/2000/svg"><path d="M0 0h18v18H0V0z" fill="#EF5350" shape-rendering="crispEdges"/><path fill="#1565C0" d="M0 0h9v9H0z" shape-rendering="crispEdges"/><path d="M6.99 5.6l.14.46h.48l-.39.28.15.46-.38-.28-.39.28.15-.46-.38-.28h.47l.15-.46zM4.6 2l.25.76h.8l-.65.48.25.76-.64-.47-.64.47.24-.76-.64-.48h.8L4.6 2zM6.97 2.8l.24.76H8l-.64.48.25.76-.64-.47-.64.47.24-.76-.64-.48h.8l.24-.76zM5.1 6l.25.76h.79l-.64.48.24.76-.64-.47-.64.47.25-.76-.64-.48h.79L5.1 6zM3.03 4l.25.76h.79l-.64.48.24.76-.64-.47L2.4 6l.25-.76L2 4.76h.79L3.03 4z" fill="#F8F9FD"/></svg>